<?xml version="1.0" standalone="no"?>
<!DOCTYPE svg PUBLIC "-//W3C//DTD SVG 20010904//EN"
 "http://www.w3.org/TR/2001/REC-SVG-20010904/DTD/svg10.dtd">
<svg version="1.0" xmlns="http://www.w3.org/2000/svg"
 height="100px" width="100px" viewBox="0 0 271.000000 384.000000"
 preserveAspectRatio="xMidYMid meet">
<metadata>
Created by potrace 1.16, written by Peter Selinger 2001-2019
</metadata>
<g transform="translate(0.000000,384.000000) scale(0.100000,-0.100000)"
fill="#fff" stroke="none">
<path d="M1225 3719 c-234 -30 -449 -136 -624 -309 -231 -227 -342 -508 -328
-835 12 -276 119 -523 318 -730 l81 -85 -40 -107 c-22 -60 -140 -369 -261
-687 -122 -319 -219 -581 -217 -583 2 -3 42 12 88 32 181 81 381 165 383 163
4 -4 183 -412 196 -447 5 -13 12 -22 14 -19 3 2 119 305 260 674 140 368 261
682 268 698 13 27 14 25 64 -105 45 -117 321 -836 443 -1157 24 -62 46 -109
50 -105 4 4 51 109 104 233 53 123 99 226 101 228 1 2 107 -42 235 -98 128
-55 234 -99 236 -97 2 2 -40 120 -95 263 -54 142 -172 451 -261 686 l-163 428
82 85 c224 233 333 521 318 835 -16 335 -186 648 -453 838 -237 169 -510 237
-799 201z m347 -135 c359 -68 662 -357 753 -719 31 -124 39 -232 25 -351 -28
-238 -127 -433 -305 -602 -130 -124 -284 -207 -461 -249 -116 -27 -319 -24
-438 5 -96 24 -246 90 -321 142 -234 161 -390 420 -425 705 -36 291 78 608
292 811 244 231 549 321 880 258z m-602 -1995 c30 -12 103 -31 161 -43 l106
-21 -52 -140 c-29 -77 -105 -279 -170 -450 -65 -171 -134 -355 -155 -409 -33
-88 -39 -97 -48 -79 -7 12 -39 81 -72 154 -33 73 -62 135 -64 137 -3 2 -73
-28 -157 -67 -84 -39 -154 -69 -156 -67 -2 2 89 246 203 544 l207 540 71 -38
c39 -21 96 -49 126 -61z m1069 -74 c32 -83 104 -271 161 -420 181 -474 190
-498 186 -502 -2 -2 -72 30 -156 72 -84 42 -153 75 -155 73 -2 -2 -33 -68 -70
-148 -37 -80 -70 -148 -73 -152 -4 -4 -100 237 -214 535 l-206 541 101 23
c128 29 205 55 287 98 36 19 69 33 74 32 4 -2 34 -70 65 -152z"/>
<path d="M1356 3188 c-9 -24 -49 -131 -90 -238 l-73 -195 -214 -5 -214 -5 182
-123 183 -122 -15 -38 c-64 -163 -163 -437 -160 -440 2 -3 97 57 210 132 117
77 211 134 218 130 7 -4 101 -66 210 -137 109 -71 200 -128 202 -125 3 3 -96
277 -160 440 l-15 38 183 122 182 123 -214 5 -215 5 -88 234 c-48 129 -90 236
-92 238 -2 2 -11 -15 -20 -39z"/>
</g>
</svg>
