<?xml version="1.0" standalone="no"?>
<!DOCTYPE svg PUBLIC "-//W3C//DTD SVG 20010904//EN"
 "http://www.w3.org/TR/2001/REC-SVG-20010904/DTD/svg10.dtd">
<svg version="1.0" xmlns="http://www.w3.org/2000/svg"
 height="100px" width="100px" viewBox="0 0 172.000000 170.000000"
 preserveAspectRatio="xMidYMid meet">
<metadata>
Created by potrace 1.16, written by Peter Selinger 2001-2019
</metadata>
<g transform="translate(0.000000,170.000000) scale(0.100000,-0.100000)"
fill="#00aeee" stroke="none">
<path d="M650 1630 c-227 -59 -430 -228 -531 -443 -94 -202 -94 -472 1 -674
103 -222 300 -383 539 -444 120 -30 320 -24 436 14 96 31 134 65 142 125 9 64
-3 89 -82 172 -86 90 -101 131 -69 189 40 72 52 75 282 81 222 5 235 8 266 61
12 21 16 54 16 141 0 144 -22 238 -87 368 -40 81 -62 109 -148 195 -86 86
-114 108 -195 148 -133 66 -224 87 -374 86 -85 0 -143 -6 -196 -19z m408 -153
c104 -36 176 -81 257 -162 123 -123 182 -255 192 -427 l6 -96 -194 -4 c-194
-3 -194 -3 -248 -33 -97 -54 -149 -152 -138 -263 6 -75 32 -124 101 -192 31
-30 56 -57 56 -61 0 -3 -28 -14 -62 -25 -95 -29 -279 -27 -373 4 -205 68 -369
231 -437 437 -20 59 -23 90 -22 200 0 113 4 139 27 203 37 105 82 176 162 257
78 77 150 124 241 156 93 33 132 38 249 35 85 -3 127 -10 183 -29z"/>
<path d="M791 1373 c-124 -65 -93 -242 45 -259 73 -9 141 46 150 122 13 104
-103 186 -195 137z"/>
<path d="M443 1175 c-67 -29 -95 -134 -54 -201 20 -33 75 -64 113 -64 45 1
104 36 121 73 59 124 -55 247 -180 192z"/>
<path d="M1131 1172 c-95 -51 -93 -199 3 -243 51 -23 78 -24 123 -2 46 22 73
67 73 123 0 108 -105 172 -199 122z"/>
<path d="M441 773 c-97 -48 -94 -208 4 -249 19 -8 46 -14 60 -14 43 0 101 36
119 74 59 125 -61 249 -183 189z"/>
</g>
</svg>
