<?xml version="1.0" standalone="no"?>
<!DOCTYPE svg PUBLIC "-//W3C//DTD SVG 20010904//EN"
 "http://www.w3.org/TR/2001/REC-SVG-20010904/DTD/svg10.dtd">
<svg version="1.0" xmlns="http://www.w3.org/2000/svg"
 height="100px" width="100px" viewBox="0 0 882.000000 980.000000"
 preserveAspectRatio="xMidYMid meet">
<metadata>
Created by potrace 1.16, written by Peter Selinger 2001-2019
</metadata>
<g transform="translate(0.000000,980.000000) scale(0.100000,-0.100000)"
fill="#fff" stroke="none">
<path d="M813 9785 c-344 -62 -624 -297 -743 -623 -64 -177 -60 61 -60 -3282
0 -3302 -3 -3098 54 -3266 121 -356 438 -612 809 -654 63 -8 893 -10 2622 -8
l2530 3 80 22 c395 108 671 406 740 799 22 129 23 6077 0 6205 -63 361 -308
649 -650 766 -164 56 -24 53 -2774 52 -2035 -1 -2550 -3 -2608 -14z m5192
-500 c32 -9 81 -28 109 -43 65 -35 153 -123 188 -188 62 -116 58 121 58 -3174
0 -3282 4 -3053 -56 -3172 -36 -71 -123 -159 -193 -197 -124 -66 79 -61 -2681
-61 -2734 0 -2552 -4 -2674 56 -114 56 -207 167 -246 292 -20 63 -20 100 -20
3082 0 2971 0 3019 20 3081 48 155 179 280 341 323 46 13 406 15 2574 15 2234
1 2527 -1 2580 -14z"/>
<path d="M7274 8714 c31 -77 66 -204 75 -268 14 -100 15 -6490 2 -6562 -35
-181 -162 -326 -339 -386 l-67 -23 -2725 -3 c-1843 -2 -2761 0 -2836 8 -93 8
-157 23 -298 67 -17 5 -15 -2 13 -53 133 -236 334 -399 597 -481 l89 -28 2580
-3 c1924 -2 2599 0 2655 9 336 52 639 305 755 629 64 181 59 -96 62 3195 3
1952 0 3028 -6 3100 -11 123 -27 189 -71 303 -76 198 -257 393 -459 497 -33
16 -34 16 -27 -1z"/>
<path d="M8270 7678 c65 -167 60 102 60 -3502 0 -3179 -1 -3276 -19 -3335 -10
-33 -30 -80 -44 -103 -34 -59 -132 -150 -195 -182 -118 -60 88 -56 -2943 -56
-3030 0 -2843 -3 -3011 55 l-68 24 29 -57 c95 -189 302 -375 501 -451 185 -72
-76 -65 2760 -69 1867 -2 2576 0 2635 8 355 51 652 291 775 628 65 178 61 -64
58 3317 l-3 3070 -22 77 c-78 273 -229 471 -463 608 -38 22 -71 40 -73 40 -3
0 8 -33 23 -72z"/>
</g>
</svg>
