<?xml version="1.0" standalone="no"?>
<!DOCTYPE svg PUBLIC "-//W3C//DTD SVG 20010904//EN"
 "http://www.w3.org/TR/2001/REC-SVG-20010904/DTD/svg10.dtd">
<svg version="1.0" xmlns="http://www.w3.org/2000/svg"
 height="100px" width="100px" viewBox="0 0 225.000000 225.000000"
 preserveAspectRatio="xMidYMid meet">
<metadata>
Created by potrace 1.16, written by Peter Selinger 2001-2019
</metadata>
<g transform="translate(0.000000,225.000000) scale(0.100000,-0.100000)"
fill="#fff" stroke="none">
<path d="M135 2145 c-49 -17 -90 -62 -104 -112 -7 -25 -11 -246 -11 -634 0
-588 0 -597 21 -623 25 -32 70 -35 99 -6 20 20 20 33 20 623 0 456 3 606 12
615 9 9 159 12 615 12 590 0 603 0 623 20 20 20 26 65 12 86 -21 33 -50 34
-649 34 -489 -1 -605 -3 -638 -15z"/>
<path d="M385 1857 c-26 -14 -48 -37 -62 -67 l-23 -44 0 -617 0 -618 27 -21
c30 -24 69 -20 90 7 10 13 13 151 13 613 0 523 2 598 16 618 l15 22 605 0
c591 0 604 0 624 20 11 11 20 27 20 36 0 19 -19 56 -34 66 -6 4 -290 8 -631 8
l-620 0 -40 -23z"/>
<path d="M704 1601 c-46 -11 -89 -46 -108 -85 -14 -30 -16 -104 -16 -666 0
-709 -3 -678 73 -728 l41 -27 705 0 706 0 37 23 c20 13 47 40 60 60 l23 37 0
635 0 635 -23 37 c-13 20 -40 47 -60 60 l-37 23 -685 2 c-377 1 -699 -2 -716
-6z m1374 -143 c17 -17 17 -1199 0 -1216 -17 -17 -1339 -17 -1356 0 -17 17
-17 1199 0 1216 17 17 1339 17 1356 0z"/>
</g>
</svg>
