<?xml version="1.0" standalone="no"?>
<!DOCTYPE svg PUBLIC "-//W3C//DTD SVG 20010904//EN"
 "http://www.w3.org/TR/2001/REC-SVG-20010904/DTD/svg10.dtd">
<svg version="1.0" xmlns="http://www.w3.org/2000/svg"
 height="100px" width="100px" viewBox="0 0 225.000000 225.000000"
 preserveAspectRatio="xMidYMid meet">
<metadata>
Created by potrace 1.16, written by Peter Selinger 2001-2019
</metadata>
<g transform="translate(0.000000,225.000000) scale(0.100000,-0.100000)"
fill="#fff" stroke="none">
<path d="M853 1730 l-271 -430 -288 246 c-222 189 -290 242 -292 228 -1 -11
47 -391 108 -845 60 -455 110 -830 110 -833 0 -3 407 -6 905 -6 498 0 905 2
905 5 0 2 50 377 110 832 61 454 110 835 108 845 -2 14 -74 -42 -295 -227
l-292 -245 -204 333 c-112 182 -230 376 -263 429 -32 54 -62 98 -65 98 -3 0
-127 -193 -276 -430z m526 -230 c134 -220 247 -400 251 -400 4 0 104 81 221
179 118 99 215 179 216 177 2 -2 -112 -877 -122 -933 l-6 -33 -814 0 -814 0
-6 33 c-10 55 -124 931 -122 933 1 1 96 -78 212 -177 116 -98 214 -178 219
-176 6 2 122 182 260 400 137 218 252 397 255 397 4 0 116 -180 250 -400z
m537 -1188 c-3 -20 -6 -47 -6 -59 l0 -23 -784 0 -783 0 -7 38 c-3 20 -6 47 -6
60 l0 22 796 0 797 0 -7 -38z"/>
</g>
</svg>
