<?xml version="1.0" standalone="no"?>
<!DOCTYPE svg PUBLIC "-//W3C//DTD SVG 20010904//EN"
 "http://www.w3.org/TR/2001/REC-SVG-20010904/DTD/svg10.dtd">
<svg version="1.0" xmlns="http://www.w3.org/2000/svg"
 height="100px" width="100px" viewBox="0 0 512.000000 512.000000"
 preserveAspectRatio="xMidYMid meet">
<metadata>
Created by potrace 1.16, written by Peter Selinger 2001-2019
</metadata>
<g transform="translate(0.000000,512.000000) scale(0.100000,-0.100000)"
fill="#00aeee" stroke="none">
<path d="M3175 5105 c-456 -80 -840 -358 -1055 -766 -54 -105 -109 -260 -137
-389 -26 -122 -26 -449 0 -570 10 -47 22 -89 26 -95 5 -5 19 -41 31 -80 115
-353 379 -656 717 -828 257 -129 405 -158 818 -161 239 -1 293 2 368 18 l88
18 197 -195 c145 -143 205 -196 228 -201 39 -9 98 14 113 42 7 14 11 126 11
325 l0 305 63 55 c179 158 329 388 407 624 59 181 73 290 67 501 -6 194 -18
266 -73 432 -138 415 -489 766 -904 904 -197 65 -224 69 -570 72 -236 2 -335
-1 -395 -11z m691 -200 c170 -27 353 -100 508 -202 91 -60 269 -238 329 -329
144 -220 217 -458 217 -709 0 -363 -154 -702 -427 -940 -48 -42 -93 -89 -100
-103 -8 -18 -12 -93 -13 -227 l0 -199 -133 131 c-76 76 -143 134 -159 138 -16
4 -60 -2 -110 -14 -46 -12 -125 -26 -177 -32 -125 -15 -532 -5 -627 15 -500
104 -879 479 -989 976 -25 114 -31 326 -12 446 29 178 100 359 204 518 60 91
238 269 329 329 151 99 338 174 499 202 115 19 543 19 661 0z"/>
<path d="M3516 4409 c-200 -22 -366 -204 -366 -401 0 -41 5 -54 29 -79 65 -64
152 -23 164 78 20 169 179 260 325 187 76 -38 115 -98 120 -186 7 -115 -49
-190 -179 -237 -65 -25 -113 -71 -129 -126 -7 -25 -10 -95 -8 -188 l3 -149 28
-24 c58 -50 146 -19 161 57 3 18 6 80 6 139 l0 108 38 13 c20 6 60 26 87 44
219 139 257 445 80 634 -96 103 -215 146 -359 130z"/>
<path d="M3514 3035 c-55 -38 -51 -130 6 -160 42 -22 74 -18 109 11 65 55 26
164 -58 164 -20 0 -46 -7 -57 -15z"/>
<path d="M531 3364 c-244 -65 -422 -232 -502 -469 l-24 -70 0 -915 0 -915 24
-70 c38 -115 87 -193 175 -281 88 -87 154 -130 268 -172 l73 -26 370 -4 370
-3 221 -220 221 -219 50 0 c95 0 111 43 112 297 l1 142 563 3 562 3 73 27
c114 42 180 85 268 172 87 88 130 154 172 268 l26 73 4 446 3 445 -28 28 c-25
25 -33 27 -73 22 -29 -4 -54 -15 -70 -31 l-25 -25 -5 -423 c-5 -409 -6 -424
-28 -478 -56 -140 -161 -245 -300 -301 -57 -23 -60 -23 -667 -28 -482 -4 -615
-8 -633 -18 -38 -22 -52 -71 -52 -184 l-1 -103 -146 150 -147 150 -400 5
c-387 5 -403 6 -458 28 -139 56 -244 161 -300 301 l-23 56 0 885 0 885 23 57
c56 139 161 244 301 300 55 23 62 23 638 28 l583 5 25 25 c16 16 27 41 31 70
5 40 3 48 -21 73 l-28 27 -586 -1 c-478 0 -596 -3 -640 -15z"/>
<path d="M614 2573 c-66 -13 -90 -111 -40 -161 l26 -27 770 0 770 0 26 27 c37
37 37 99 0 136 l-26 27 -753 1 c-413 1 -762 0 -773 -3z"/>
<path d="M614 2013 c-66 -13 -90 -111 -40 -161 l26 -27 1095 0 1095 0 26 27
c37 37 37 99 0 136 l-26 27 -1078 1 c-592 1 -1087 0 -1098 -3z"/>
<path d="M614 1453 c-66 -13 -90 -111 -40 -161 l26 -27 868 -3 c477 -2 882 0
901 3 97 18 111 152 19 184 -30 11 -1723 14 -1774 4z"/>
<path d="M2712 1445 c-21 -9 -38 -27 -48 -50 -20 -49 1 -100 51 -120 31 -14
39 -14 70 0 78 32 78 138 1 170 -41 18 -33 18 -74 0z"/>
</g>
</svg>
