<?xml version="1.0" standalone="no"?>
<!DOCTYPE svg PUBLIC "-//W3C//DTD SVG 20010904//EN"
 "http://www.w3.org/TR/2001/REC-SVG-20010904/DTD/svg10.dtd">
<svg version="1.0" xmlns="http://www.w3.org/2000/svg"
 height="100px" width="100px" viewBox="0 0 256.000000 256.000000"
 preserveAspectRatio="xMidYMid meet">
<metadata>
Created by potrace 1.16, written by Peter Selinger 2001-2019
</metadata>
<g transform="translate(0.000000,256.000000) scale(0.100000,-0.100000)"
fill="#00aeee" stroke="none">
<path d="M749 2545 c-247 -49 -456 -240 -529 -482 l-22 -73 -49 0 -49 0 0
-130 0 -131 128 3 127 3 0 125 0 125 -32 3 c-20 2 -33 9 -33 17 0 31 45 134
87 197 187 284 578 361 858 168 l45 -31 45 31 c66 46 150 80 235 97 286 56
585 -113 688 -390 29 -77 28 -85 -10 -89 l-33 -3 0 -125 0 -125 128 -3 127 -3
0 131 0 130 -49 0 -49 0 -22 73 c-55 184 -181 333 -357 422 -193 98 -416 98
-615 2 l-88 -43 -88 43 c-142 68 -292 88 -443 58z"/>
<path d="M750 2331 c-119 -38 -217 -112 -279 -210 -98 -153 -96 -372 4 -525
18 -28 137 -154 264 -281 127 -126 231 -236 231 -243 0 -6 -51 -115 -114 -241
l-115 -228 65 -6 c132 -13 222 -84 259 -204 6 -22 4 -23 -44 -23 l-51 0 0 -40
c0 -36 3 -40 25 -40 l25 0 0 -145 0 -145 260 0 260 0 0 145 0 145 25 0 c23 0
25 4 25 40 l0 40 -51 0 c-48 0 -50 1 -43 23 37 121 126 191 258 204 l65 6
-115 228 c-63 126 -114 235 -114 241 0 7 106 119 235 248 130 129 249 255 265
280 72 113 93 283 50 411 -68 203 -254 339 -465 339 -132 0 -237 -41 -340
-133 l-56 -50 -42 41 c-99 95 -216 142 -351 141 -49 0 -103 -7 -136 -18z m251
-77 c77 -23 114 -47 202 -133 l77 -76 78 76 c89 88 124 111 207 134 186 54
392 -42 478 -223 30 -62 32 -75 32 -172 0 -98 -2 -110 -33 -175 -29 -61 -59
-96 -259 -297 -125 -125 -231 -228 -235 -228 -4 0 -65 115 -135 255 -70 140
-130 255 -133 255 -3 0 -63 -115 -133 -255 -70 -140 -131 -255 -135 -255 -4 0
-110 103 -235 228 -200 201 -230 236 -259 297 -31 65 -33 77 -33 175 0 97 2
110 31 170 40 83 87 136 159 179 100 61 218 77 326 45z m239 -1068 l0 -224
-34 -20 c-23 -14 -39 -34 -51 -66 -17 -44 -17 -48 -1 -91 23 -59 65 -89 126
-89 61 0 103 30 126 89 16 43 16 47 -1 91 -12 32 -28 52 -51 66 l-34 20 1 226
0 227 185 -369 c102 -202 184 -369 182 -370 -2 -1 -25 -10 -51 -20 -101 -38
-185 -127 -215 -227 l-17 -59 -125 0 -125 0 -17 59 c-30 100 -114 189 -215
227 -26 10 -49 18 -51 20 -3 2 361 734 365 734 2 0 3 -101 3 -224z m210 -1001
l0 -105 -170 0 -170 0 0 105 0 105 170 0 170 0 0 -105z"/>
</g>
</svg>
