<?xml version="1.0" standalone="no"?>
<!DOCTYPE svg PUBLIC "-//W3C//DTD SVG 20010904//EN"
 "http://www.w3.org/TR/2001/REC-SVG-20010904/DTD/svg10.dtd">
<svg version="1.0" xmlns="http://www.w3.org/2000/svg"
 height="100px" width="100px" viewBox="0 0 240.000000 255.000000"
 preserveAspectRatio="xMidYMid meet">
<metadata>
Created by potrace 1.16, written by Peter Selinger 2001-2019
</metadata>
<g transform="translate(0.000000,255.000000) scale(0.100000,-0.100000)"
fill="#00aeee" stroke="none">
<path d="M883 2066 c-113 -37 -209 -140 -232 -251 -5 -20 -14 -31 -31 -35 -23
-5 -25 -10 -25 -65 l0 -60 60 0 60 0 0 60 c0 55 -2 60 -23 63 -27 4 -25 17 14
99 44 93 142 161 245 170 84 8 140 -4 204 -42 l57 -35 25 20 c35 27 116 50
179 50 133 0 267 -101 304 -229 7 -26 6 -30 -13 -33 -20 -3 -22 -9 -22 -63 l0
-60 60 0 60 0 0 60 c0 54 -2 60 -24 65 -18 4 -27 17 -36 47 -26 86 -93 163
-185 210 -48 24 -67 27 -145 28 -77 0 -98 -4 -147 -27 l-58 -27 -60 31 c-51
27 -74 32 -143 35 -50 2 -98 -2 -124 -11z"/>
<path d="M1103 1623 c-45 -104 -114 -263 -153 -355 -40 -91 -70 -173 -67 -182
3 -8 32 -32 63 -53 l58 -38 -42 -3 c-29 -2 -42 -8 -42 -18 0 -11 14 -14 60
-14 l60 0 2 -167 3 -168 165 0 165 0 3 168 2 167 55 0 c41 0 55 4 55 14 0 10
-13 16 -37 18 l-37 3 57 43 c31 23 57 47 57 53 0 6 -71 170 -157 365 -113 255
-162 354 -173 354 -12 0 -40 -54 -97 -187z m75 -332 c-46 -15 -72 -85 -48
-130 16 -31 65 -46 100 -31 36 15 50 37 50 80 0 30 -37 80 -60 80 -7 0 -10 74
-10 222 0 122 3 219 6 215 16 -16 284 -631 277 -637 -4 -4 -36 -28 -70 -53
l-61 -47 -152 0 -152 0 -74 52 c-41 28 -74 54 -74 58 0 5 222 519 266 615 6
13 10 -58 12 -200 2 -165 -1 -221 -10 -224z m172 -486 l0 -155 -140 0 -140 0
0 155 0 155 140 0 140 0 0 -155z"/>
</g>
</svg>
