<?xml version="1.0" standalone="no"?>
<!DOCTYPE svg PUBLIC "-//W3C//DTD SVG 20010904//EN"
 "http://www.w3.org/TR/2001/REC-SVG-20010904/DTD/svg10.dtd">
<svg version="1.0" xmlns="http://www.w3.org/2000/svg"
 height="100px" width="100px" viewBox="0 0 256.000000 256.000000"
 preserveAspectRatio="xMidYMid meet">
<metadata>
Created by potrace 1.16, written by Peter Selinger 2001-2019
</metadata>
<g transform="translate(0.000000,256.000000) scale(0.100000,-0.100000)"
fill="#00aeee" stroke="none">
<path d="M1046 2544 c-175 -32 -390 -126 -535 -234 -91 -68 -220 -200 -283
-290 -99 -140 -183 -342 -213 -514 -20 -115 -20 -337 0 -452 69 -393 331 -743
691 -923 103 -52 237 -96 349 -115 117 -21 336 -21 451 -1 392 69 741 330 923
691 52 104 96 236 116 348 30 174 15 444 -33 588 -19 58 -47 77 -96 64 -45
-11 -52 -43 -28 -138 71 -282 42 -551 -87 -806 -211 -417 -675 -673 -1131
-623 -549 59 -972 482 -1031 1031 -50 455 206 921 621 1130 259 130 526 160
808 88 95 -24 127 -17 138 28 12 49 -6 77 -62 96 -142 47 -428 63 -598 32z"/>
<path d="M1873 2227 l-213 -213 0 -129 0 -130 -222 -222 c-198 -198 -221 -225
-220 -253 1 -43 18 -60 61 -60 34 0 50 14 256 220 l220 220 129 0 130 0 208
208 c115 114 211 217 214 229 6 22 -10 62 -30 75 -6 4 -59 8 -118 8 l-108 0 0
108 c0 59 -4 112 -8 118 -10 16 -47 34 -69 34 -10 0 -112 -94 -230 -213z m190
-165 c8 -7 40 -16 71 -19 l58 -6 -118 -118 -119 -119 -77 0 -78 0 0 77 0 78
118 118 117 117 7 -57 c4 -31 14 -63 21 -71z"/>
<path d="M1110 2165 c-331 -67 -597 -311 -690 -635 -31 -107 -38 -307 -15
-421 72 -359 345 -632 704 -704 114 -23 314 -16 421 15 247 71 448 241 560
474 62 130 80 203 87 352 5 114 4 123 -16 143 -13 13 -34 21 -55 21 -53 0 -66
-26 -66 -136 0 -341 -247 -649 -586 -730 -98 -24 -258 -21 -357 5 -265 70
-478 283 -548 548 -26 99 -29 259 -5 357 81 341 388 586 733 586 80 0 96 3
113 20 29 29 26 74 -6 99 -23 18 -40 21 -118 20 -50 0 -120 -7 -156 -14z"/>
<path d="M1175 1788 c-130 -24 -279 -136 -344 -257 -158 -297 7 -669 330 -746
309 -72 603 135 635 448 8 84 -9 117 -59 117 -54 0 -69 -19 -78 -95 -17 -137
-98 -253 -217 -312 -51 -25 -68 -28 -157 -28 -90 0 -106 3 -160 29 -76 38
-143 105 -181 181 -26 54 -29 70 -29 160 0 90 3 106 28 158 59 119 177 202
305 214 77 7 102 26 102 77 0 62 -51 78 -175 54z"/>
</g>
</svg>
