<?xml version="1.0" standalone="no"?>
<!DOCTYPE svg PUBLIC "-//W3C//DTD SVG 20010904//EN"
 "http://www.w3.org/TR/2001/REC-SVG-20010904/DTD/svg10.dtd">
<svg version="1.0" xmlns="http://www.w3.org/2000/svg"
 height="100px" width="100px"  viewBox="0 0 256.000000 256.000000"
 preserveAspectRatio="xMidYMid meet">
<metadata>
Created by potrace 1.16, written by Peter Selinger 2001-2019
</metadata>
<g transform="translate(0.000000,256.000000) scale(0.100000,-0.100000)"
fill="#fff" stroke="none">
<path d="M637 2425 c-50 -17 -85 -50 -108 -100 -18 -38 -19 -86 -18 -955 l0
-915 82 -160 c78 -153 83 -160 112 -160 29 0 34 7 112 160 l82 160 0 785 c1
432 -3 791 -8 798 -5 8 -21 12 -37 10 l-29 -3 -3 -762 -2 -763 -64 0 c-45 0
-69 -5 -80 -16 -36 -36 -6 -74 60 -74 24 0 44 -3 44 -7 -1 -5 -18 -41 -38 -81
l-37 -72 -58 117 -58 118 3 885 c3 961 0 909 59 944 35 21 74 20 109 -1 31
-18 46 -42 55 -90 l7 -33 -65 0 c-66 0 -97 -14 -97 -45 0 -34 30 -45 124 -45
58 0 96 4 104 12 19 19 15 146 -7 193 -42 93 -145 136 -244 100z"/>
<path d="M1268 2430 c-51 -16 -94 -49 -118 -92 -24 -42 -25 -50 -28 -266 -3
-164 0 -227 8 -237 15 -18 54 -19 68 -2 7 8 12 97 14 236 l3 223 33 29 32 29
303 0 c282 0 304 -1 334 -20 21 -12 36 -32 43 -57 8 -27 10 -325 8 -1015 l-3
-978 -33 -32 -32 -33 -300 -3 c-256 -2 -304 -1 -330 13 -42 22 -60 63 -60 140
l0 65 99 0 c102 0 131 10 131 45 0 35 -29 45 -131 45 l-99 0 0 34 c0 32 3 35
33 38 29 3 32 6 32 38 0 32 -3 35 -32 38 -30 3 -33 6 -33 38 0 29 4 34 23 34
35 0 49 15 45 46 -2 25 -8 29 -35 32 -30 3 -33 6 -33 36 0 27 5 33 33 41 54
16 47 85 -9 85 -21 0 -24 5 -24 35 l0 34 106 3 c89 3 109 6 118 21 8 12 8 22
0 35 -9 14 -29 17 -118 20 l-106 3 0 34 c0 30 4 35 23 35 35 0 49 15 45 46 -2
25 -8 29 -35 32 -30 3 -33 6 -33 36 0 27 5 33 33 41 25 8 33 16 35 39 4 31
-10 46 -45 46 -19 0 -23 5 -23 34 0 32 3 35 33 38 29 3 32 6 32 38 0 32 -3 35
-32 38 -30 3 -33 6 -33 38 l0 34 104 0 c114 0 133 9 122 55 -8 33 -31 37 -175
33 -95 -2 -124 -6 -131 -18 -6 -9 -9 -287 -8 -740 3 -654 5 -728 20 -755 22
-40 66 -81 101 -94 18 -7 146 -11 348 -11 294 0 323 2 357 19 42 22 63 43 86
88 15 30 16 125 14 1057 l-3 1024 -31 39 c-64 78 -61 78 -409 80 -170 1 -322
-2 -337 -7z"/>
<path d="M1542 2203 c-38 -8 -99 -74 -107 -116 -18 -93 39 -179 128 -192 61
-9 132 24 161 74 41 71 17 174 -49 213 -33 18 -97 29 -133 21z m97 -109 c12
-15 21 -34 21 -44 0 -31 -39 -70 -71 -70 -62 0 -92 78 -47 120 31 28 72 26 97
-6z"/>
<path d="M672 2038 c-17 -17 -17 -1419 0 -1436 15 -15 51 -15 66 0 17 17 17
1419 0 1436 -7 7 -21 12 -33 12 -12 0 -26 -5 -33 -12z"/>
</g>
</svg>
