<?xml version="1.0" standalone="no"?>
<!DOCTYPE svg PUBLIC "-//W3C//DTD SVG 20010904//EN"
 "http://www.w3.org/TR/2001/REC-SVG-20010904/DTD/svg10.dtd">
<svg version="1.0" xmlns="http://www.w3.org/2000/svg"
 height="100px" width="100px" viewBox="0 0 344.000000 452.000000"
 preserveAspectRatio="xMidYMid meet">
<metadata>
Created by potrace 1.16, written by Peter Selinger 2001-2019
</metadata>
<g transform="translate(0.000000,452.000000) scale(0.100000,-0.100000)"
fill="#00aeee" stroke="none">
<path d="M1924 4380 c-12 -5 -29 -19 -38 -32 -15 -20 -16 -205 -16 -2069 l0
-2047 31 -26 31 -26 449 0 c304 0 457 4 471 11 50 27 48 -70 48 2092 0 1477
-3 2023 -11 2047 -21 59 -30 60 -511 59 -238 0 -443 -4 -454 -9z m804 -2097
l-3 -1928 -342 -3 -343 -2 0 175 0 175 226 2 c203 3 228 5 238 20 8 13 8 23 0
35 -10 16 -35 18 -238 21 l-226 2 0 85 0 85 86 0 c95 0 124 10 124 43 0 40
-18 47 -117 47 l-93 0 0 85 0 85 223 0 c160 0 226 3 235 12 17 17 15 44 -4 62
-13 14 -49 16 -235 16 l-219 0 0 85 0 85 93 0 c99 0 117 7 117 47 0 32 -33 43
-131 43 l-79 0 0 80 0 80 219 0 c186 0 222 2 235 16 19 18 21 45 4 62 -9 9
-75 12 -235 12 l-223 0 0 85 0 85 86 0 c95 0 124 10 124 43 0 40 -18 47 -117
47 l-93 0 0 85 0 85 223 0 c160 0 226 3 235 12 17 17 15 44 -4 62 -13 14 -49
16 -235 16 l-219 0 0 85 0 85 93 0 c98 0 117 7 117 46 0 29 -16 34 -121 34
l-90 0 3 88 3 87 224 5 c199 4 225 7 235 23 8 12 8 22 0 35 -10 15 -35 17
-238 20 l-226 2 0 85 0 85 93 0 c99 0 117 7 117 47 0 33 -29 43 -124 43 l-86
0 0 85 0 85 224 0 c243 0 255 3 242 55 -7 29 12 27 -261 29 l-200 1 -3 88 -3
87 93 0 c51 0 99 4 106 9 8 5 12 21 10 37 l-3 29 -102 3 -103 3 0 84 0 85 219
0 c186 0 222 2 235 16 19 18 21 45 4 62 -9 9 -75 12 -235 12 l-223 0 0 170 0
170 345 0 345 0 -2 -1927z"/>
<path d="M960 4366 c-190 -51 -333 -209 -371 -410 -5 -29 -9 -624 -9 -1449 l0
-1400 221 -444 c218 -436 246 -483 290 -483 53 0 62 14 292 470 l227 448 0
1414 c0 1551 2 1480 -60 1597 -63 118 -161 202 -289 247 -76 27 -222 32 -301
10z m251 -176 c74 -28 123 -65 163 -123 44 -66 68 -149 64 -224 l-3 -58 -340
0 -340 0 -3 40 c-7 75 17 172 56 229 47 68 88 103 160 132 73 30 171 32 243 4z
m-291 -1780 l0 -1200 -85 0 -85 0 0 1200 0 1200 85 0 85 0 0 -1200z m260 0 l0
-1200 -85 0 -85 0 0 1200 0 1200 85 0 85 0 0 -1200z m260 0 l0 -1200 -85 0
-85 0 0 1200 0 1200 85 0 85 0 0 -1200z m-60 -1375 c0 -3 -37 -79 -82 -170
l-83 -165 -120 0 -120 0 -83 165 c-45 91 -82 167 -82 170 0 3 128 5 285 5 157
0 285 -2 285 -5z"/>
</g>
</svg>
