<?xml version="1.0" standalone="no"?>
<!DOCTYPE svg PUBLIC "-//W3C//DTD SVG 20010904//EN"
 "http://www.w3.org/TR/2001/REC-SVG-20010904/DTD/svg10.dtd">
<svg version="1.0" xmlns="http://www.w3.org/2000/svg"
 height="100px" width="100px" viewBox="0 0 172.000000 156.000000"
 preserveAspectRatio="xMidYMid meet">
<metadata>
Created by potrace 1.16, written by Peter Selinger 2001-2019
</metadata>
<g transform="translate(0.000000,156.000000) scale(0.100000,-0.100000)"
fill="#00aeee" stroke="none">
<path d="M812 1493 c-7 -3 -58 -96 -114 -206 -55 -111 -102 -204 -104 -206 -2
-2 -104 -19 -226 -37 -208 -31 -225 -35 -245 -59 -13 -15 -23 -40 -23 -58 -1
-28 18 -50 166 -194 l167 -161 -37 -210 c-20 -115 -36 -219 -36 -230 0 -12 11
-33 24 -48 40 -47 69 -39 284 75 l192 102 187 -98 c103 -54 199 -102 213 -106
37 -12 79 7 94 45 13 30 10 56 -23 251 l-37 218 152 149 c84 82 158 158 163
169 17 31 13 68 -11 96 -21 24 -38 28 -246 59 -122 18 -224 35 -226 37 -2 2
-49 95 -104 205 -56 111 -108 204 -117 208 -19 7 -74 7 -93 -1z m117 -408 c35
-74 72 -142 82 -150 11 -11 66 -23 161 -37 79 -11 149 -22 157 -24 9 -3 -26
-46 -102 -123 -65 -65 -117 -124 -117 -132 0 -8 11 -79 25 -159 14 -80 25
-149 25 -153 0 -5 -61 23 -135 62 -85 45 -146 71 -166 71 -20 0 -82 -26 -166
-70 -74 -39 -135 -70 -137 -70 -2 0 7 57 20 128 39 212 43 196 -88 328 -73 74
-106 115 -97 118 8 2 78 13 157 24 96 14 150 26 162 37 10 9 46 77 81 150 35
74 66 135 69 135 3 0 34 -61 69 -135z"/>
</g>
</svg>
