<?xml version="1.0" standalone="no"?>
<!DOCTYPE svg PUBLIC "-//W3C//DTD SVG 20010904//EN"
 "http://www.w3.org/TR/2001/REC-SVG-20010904/DTD/svg10.dtd">
<svg version="1.0" xmlns="http://www.w3.org/2000/svg"
  height="100px" width="100px" viewBox="0 0 500.000000 482.000000"
 preserveAspectRatio="xMidYMid meet">
<metadata>
Created by potrace 1.16, written by Peter Selinger 2001-2019
</metadata>
<g transform="translate(0.000000,482.000000) scale(0.100000,-0.100000)"
fill="#00aeee" stroke="none">
<path d="M2404 4695 c-27 -13 -66 -42 -87 -63 -34 -35 -55 -90 -283 -742 -136
-388 -249 -707 -250 -709 -6 -7 -398 -19 -954 -31 -283 -6 -539 -15 -569 -20
-172 -29 -258 -232 -155 -367 28 -37 195 -168 659 -518 378 -285 565 -432 565
-443 0 -4 -79 -267 -176 -583 -244 -799 -248 -814 -248 -884 1 -148 125 -252
276 -232 46 6 96 39 708 457 223 152 451 308 508 345 l102 68 203 -137 c111
-76 366 -250 567 -388 474 -324 499 -340 561 -346 111 -11 220 60 248 161 27
95 30 83 -240 965 -93 304 -169 559 -169 567 0 21 80 85 550 440 228 173 471
358 539 412 151 118 171 149 171 258 0 64 -3 77 -30 113 -37 51 -101 99 -149
111 -38 10 -200 15 -946 31 -247 5 -482 12 -521 16 l-71 5 -57 162 c-32 89
-143 404 -247 700 -104 296 -198 551 -209 566 -10 16 -36 41 -56 56 -78 60
-160 70 -240 30z m120 -197 c8 -13 123 -331 256 -708 297 -841 277 -788 302
-801 32 -17 248 -27 848 -38 551 -11 716 -17 773 -27 29 -6 36 -30 13 -48 -8
-6 -81 -63 -163 -127 -81 -64 -326 -250 -543 -414 -402 -303 -520 -396 -554
-434 -28 -31 -41 15 318 -1169 64 -211 116 -390 116 -397 0 -7 -6 -18 -14 -24
-18 -15 -83 27 -649 416 -597 410 -694 473 -727 473 -35 0 -120 -54 -565 -360
-770 -530 -815 -558 -831 -517 -2 7 18 86 46 176 55 178 315 1039 375 1239 21
71 33 131 30 143 -9 28 -151 139 -768 603 -290 218 -527 400 -527 404 0 5 6
17 14 27 15 21 -97 17 1121 45 253 5 473 14 489 18 55 15 29 -52 406 1022 84
239 161 454 171 478 20 47 41 53 63 20z"/>
</g>
</svg>
