<?xml version="1.0" standalone="no"?>
<!DOCTYPE svg PUBLIC "-//W3C//DTD SVG 20010904//EN"
 "http://www.w3.org/TR/2001/REC-SVG-20010904/DTD/svg10.dtd">
<svg version="1.0" xmlns="http://www.w3.org/2000/svg"
 height="100px" width="100px" viewBox="0 0 200.000000 197.000000"
 preserveAspectRatio="xMidYMid meet">
<metadata>
Created by potrace 1.16, written by Peter Selinger 2001-2019
</metadata>
<g transform="translate(0.000000,197.000000) scale(0.100000,-0.100000)"
fill="#00aeee" stroke="none">
<path d="M825 1895 c-285 -53 -538 -243 -667 -500 -124 -245 -129 -562 -14
-811 118 -253 342 -442 617 -516 122 -33 348 -33 468 0 400 109 675 445 698
853 12 214 -41 406 -160 584 -59 88 -191 212 -285 269 -90 54 -242 109 -342
125 -86 14 -228 12 -315 -4z m343 -191 c67 -14 218 -82 267 -119 19 -15 15
-19 -81 -116 l-101 -101 -39 20 c-66 33 -144 52 -219 52 -75 0 -153 -19 -219
-52 l-39 -20 -101 101 c-116 116 -117 101 14 170 164 86 322 105 518 65z
m-664 -373 l98 -98 -20 -39 c-69 -135 -69 -303 0 -438 l20 -39 -101 -101
c-116 -116 -101 -117 -171 16 -59 111 -82 209 -82 343 0 159 33 272 121 412
14 24 28 43 31 43 3 0 50 -44 104 -99z m1117 56 c88 -140 121 -253 121 -412 0
-134 -23 -232 -82 -343 -70 -133 -55 -132 -171 -16 l-101 101 20 39 c69 135
69 303 0 438 l-20 39 98 98 c54 55 101 99 104 99 3 0 17 -19 31 -43z m-517
-152 c53 -22 120 -88 147 -143 31 -65 31 -169 0 -234 -27 -55 -93 -120 -148
-144 -51 -22 -165 -22 -216 0 -55 24 -121 89 -148 144 -31 65 -31 169 0 234
25 51 95 122 139 140 78 31 156 32 226 3z m-284 -691 c120 -51 273 -43 394 18
l39 20 101 -101 c116 -116 117 -101 -16 -171 -112 -59 -209 -82 -343 -82 -134
0 -231 23 -343 82 -133 70 -131 55 -17 170 55 55 104 98 110 96 5 -3 39 -17
75 -32z"/>
</g>
</svg>
