<?xml version="1.0" standalone="no"?>
<!DOCTYPE svg PUBLIC "-//W3C//DTD SVG 20010904//EN"
 "http://www.w3.org/TR/2001/REC-SVG-20010904/DTD/svg10.dtd">
<svg version="1.0" xmlns="http://www.w3.org/2000/svg"
 height="100px" width="100px" viewBox="0 0 137.000000 126.000000"
 preserveAspectRatio="xMidYMid meet">
<metadata>
Created by potrace 1.16, written by Peter Selinger 2001-2019
</metadata>
<g transform="translate(0.000000,126.000000) scale(0.100000,-0.100000)"
fill="#00aeee" stroke="none">
<path d="M595 1181 c-50 -22 -109 -86 -125 -136 -7 -20 -10 -65 -8 -101 5 -77
40 -134 108 -176 85 -52 181 -47 262 15 141 108 111 333 -54 401 -50 21 -134
20 -183 -3z m196 -65 c42 -28 79 -97 79 -147 -1 -68 -52 -145 -113 -168 -91
-35 -187 5 -228 94 -24 53 -24 99 2 152 47 97 169 129 260 69z"/>
<path d="M451 755 c-55 -50 -101 -144 -104 -215 -2 -53 -1 -55 23 -55 23 0 26
5 31 50 9 70 31 116 79 169 66 72 42 115 -29 51z"/>
<path d="M867 783 c-15 -14 -5 -38 34 -80 47 -52 69 -99 78 -168 5 -45 8 -50
31 -50 24 0 25 2 23 55 -3 70 -49 165 -103 214 -41 36 -51 41 -63 29z"/>
<path d="M673 648 c-6 -7 -29 -49 -51 -94 l-40 -80 -97 -13 c-66 -10 -98 -18
-102 -28 -4 -9 21 -42 65 -86 l71 -72 -16 -98 c-22 -133 -18 -136 98 -74 l89
48 89 -48 c116 -62 120 -59 98 74 l-16 98 71 72 c44 44 69 77 65 86 -4 10 -36
18 -102 27 l-96 14 -47 90 c-48 92 -61 106 -79 84z m53 -144 c31 -73 38 -78
133 -89 l63 -7 -57 -58 -57 -58 12 -72 c7 -39 10 -73 7 -76 -2 -3 -34 10 -71
28 l-66 32 -66 -32 c-37 -18 -69 -31 -71 -28 -3 3 0 37 7 76 l12 72 -57 58
-57 58 63 7 c95 11 102 16 133 89 16 36 32 66 36 66 4 0 20 -30 36 -66z"/>
<path d="M213 385 c-26 -52 -29 -55 -72 -61 -97 -13 -101 -21 -40 -79 l40 -40
-6 -66 c-4 -37 -3 -69 2 -72 4 -3 33 8 63 23 l55 28 57 -29 c71 -36 80 -28 66
55 l-11 60 42 38 c62 58 57 70 -40 83 -43 6 -47 10 -72 61 -15 30 -34 54 -42
54 -8 0 -27 -24 -42 -55z m66 -54 c17 -32 26 -39 61 -45 l42 -6 -30 -34 c-27
-31 -29 -38 -22 -76 7 -36 5 -40 -9 -34 -68 28 -71 29 -100 11 -41 -24 -44
-22 -37 26 6 39 4 45 -24 72 l-31 30 43 10 c35 9 47 18 63 48 11 20 21 37 22
37 2 0 11 -17 22 -39z"/>
<path d="M1083 385 c-26 -52 -29 -55 -72 -61 -97 -13 -102 -24 -40 -82 l42
-38 -11 -60 c-14 -83 -5 -91 66 -55 l57 29 55 -28 c30 -15 59 -26 63 -23 5 3
6 35 2 72 l-6 66 40 40 c61 58 57 66 -40 79 -43 6 -46 9 -72 61 -15 31 -34 55
-42 55 -8 0 -27 -24 -42 -55z m125 -100 l43 -10 -30 -29 c-27 -26 -30 -33 -24
-72 6 -49 3 -51 -38 -27 -29 18 -32 17 -100 -11 -14 -6 -16 -2 -9 34 7 38 5
45 -22 76 l-30 34 42 6 c35 6 44 12 61 47 l21 40 22 -39 c17 -31 30 -40 64
-49z"/>
</g>
</svg>
