<?xml version="1.0" standalone="no"?>
<!DOCTYPE svg PUBLIC "-//W3C//DTD SVG 20010904//EN"
 "http://www.w3.org/TR/2001/REC-SVG-20010904/DTD/svg10.dtd">
<svg version="1.0" xmlns="http://www.w3.org/2000/svg"
 height="100px" width="100px" viewBox="0 0 354.000000 318.000000"
 preserveAspectRatio="xMidYMid meet">
<metadata>
Created by potrace 1.16, written by Peter Selinger 2001-2019
</metadata>
<g transform="translate(0.000000,318.000000) scale(0.100000,-0.100000)"
fill="#00aeee" stroke="none">
<path d="M1785 3035 l-25 -24 0 -268 c0 -307 1 -313 70 -313 69 0 70 6 70 313
l0 268 -25 24 c-31 32 -59 32 -90 0z"/>
<path d="M630 2710 c-36 -36 -26 -63 68 -173 48 -57 123 -147 167 -200 87
-103 116 -124 157 -108 28 10 49 56 39 83 -5 15 -288 354 -333 400 -24 24 -73
23 -98 -2z"/>
<path d="M2921 2698 c-16 -18 -95 -109 -175 -203 -149 -174 -162 -197 -136
-245 12 -23 53 -33 82 -19 20 9 227 245 326 370 37 48 41 80 12 109 -31 31
-74 26 -109 -12z"/>
<path d="M1580 2295 c-478 -76 -945 -345 -1178 -679 l-41 -58 51 -77 c200
-298 618 -549 1078 -647 145 -31 382 -42 526 -25 530 66 1075 366 1265 698
l30 53 -37 57 c-60 93 -245 270 -364 349 -255 170 -538 282 -830 329 -117 18
-381 18 -500 0z m446 -239 c237 -118 330 -391 213 -632 -30 -62 -126 -164
-187 -197 -228 -124 -513 -35 -628 197 -89 182 -59 387 78 532 100 106 200
146 350 141 89 -4 105 -7 174 -41z m-684 -21 c-119 -135 -170 -358 -126 -545
50 -216 238 -409 449 -464 156 -40 298 -26 443 44 161 77 292 239 337 415 19
76 19 224 0 300 -20 78 -63 169 -106 225 -53 68 -53 70 -22 60 162 -50 387
-160 517 -254 87 -63 219 -185 257 -238 l19 -27 -49 -58 c-260 -313 -871 -560
-1306 -528 -326 23 -634 131 -910 318 -98 67 -285 245 -285 271 0 24 151 173
247 243 87 65 226 147 308 184 62 27 247 98 258 99 5 0 -9 -20 -31 -45z"/>
<path d="M1770 1962 c0 -6 9 -14 20 -17 37 -12 72 -78 72 -135 0 -184 -245
-220 -305 -45 l-14 39 -19 -49 c-13 -34 -19 -74 -19 -126 1 -134 70 -239 195
-298 45 -21 69 -26 135 -25 97 0 157 26 225 94 71 71 94 127 94 235 1 79 -3
97 -27 146 -32 67 -100 132 -165 162 -52 23 -192 37 -192 19z"/>
<path d="M963 882 c-26 -17 -344 -399 -350 -420 -13 -51 64 -103 104 -70 8 7
90 100 181 207 135 158 165 199 165 224 0 48 -60 84 -100 59z"/>
<path d="M2622 874 c-16 -11 -22 -25 -22 -50 0 -31 21 -59 175 -240 151 -175
179 -204 203 -204 35 0 72 37 72 71 0 17 -50 83 -166 219 -91 107 -173 201
-182 208 -22 16 -53 15 -80 -4z"/>
<path d="M1785 665 l-25 -24 0 -268 c0 -307 1 -313 70 -313 69 0 70 6 70 313
l0 268 -25 24 c-13 14 -33 25 -45 25 -11 0 -32 -11 -45 -25z"/>
</g>
</svg>
