<?xml version="1.0" standalone="no"?>
<!DOCTYPE svg PUBLIC "-//W3C//DTD SVG 20010904//EN"
 "http://www.w3.org/TR/2001/REC-SVG-20010904/DTD/svg10.dtd">
<svg version="1.0" xmlns="http://www.w3.org/2000/svg"
 height="100px" width="100px" viewBox="0 0 312.000000 302.000000"
 preserveAspectRatio="xMidYMid meet">
<metadata>
Created by potrace 1.16, written by Peter Selinger 2001-2019
</metadata>
<g transform="translate(0.000000,302.000000) scale(0.100000,-0.100000)"
fill="#00aeee" stroke="none">
<path d="M1515 2985 l-25 -24 0 -268 c0 -307 1 -313 70 -313 69 0 70 6 70 313
l0 268 -25 24 c-31 32 -59 32 -90 0z"/>
<path d="M360 2658 c-34 -37 -25 -61 68 -171 48 -57 123 -147 167 -200 87
-103 116 -124 157 -108 28 10 49 56 39 83 -5 15 -288 354 -333 400 -25 25 -73
23 -98 -4z"/>
<path d="M2651 2648 c-16 -18 -95 -109 -175 -203 -149 -174 -162 -197 -136
-245 12 -23 53 -33 82 -19 20 9 227 245 326 370 37 48 41 80 12 109 -31 31
-74 26 -109 -12z"/>
<path d="M1310 2245 c-478 -76 -945 -345 -1178 -679 l-41 -58 51 -77 c200
-298 618 -549 1078 -647 145 -31 382 -42 526 -25 530 66 1075 366 1265 698
l30 53 -37 57 c-60 93 -245 270 -364 349 -254 169 -539 282 -830 329 -117 18
-381 18 -500 0z m446 -239 c287 -143 353 -505 134 -740 -118 -126 -280 -173
-445 -130 -222 57 -373 289 -337 517 20 134 110 269 220 334 81 48 148 64 254
60 89 -4 105 -7 174 -41z m-684 -21 c-119 -135 -170 -358 -126 -545 50 -216
238 -409 449 -464 156 -40 298 -26 443 44 161 77 292 239 337 415 19 76 19
224 0 300 -20 78 -63 169 -106 225 -47 61 -53 71 -37 66 184 -59 396 -163 533
-261 88 -63 218 -183 256 -237 l19 -27 -49 -59 c-174 -209 -552 -417 -892
-491 -134 -29 -309 -44 -414 -36 -326 23 -634 131 -910 318 -95 65 -285 245
-285 270 0 25 128 154 230 231 150 113 343 214 545 284 48 17 49 14 7 -33z"/>
<path d="M1500 1912 c0 -6 9 -14 20 -17 37 -12 72 -78 72 -135 0 -184 -245
-220 -305 -45 l-14 39 -19 -49 c-13 -34 -19 -74 -19 -126 1 -134 70 -239 195
-298 45 -21 69 -26 135 -25 97 0 157 26 225 94 72 71 94 127 94 235 0 78 -3
98 -27 146 -32 67 -100 132 -165 162 -52 23 -192 37 -192 19z"/>
<path d="M688 828 c-35 -27 -339 -394 -345 -416 -13 -51 64 -103 104 -70 8 7
90 100 181 207 135 158 165 199 165 224 0 52 -65 86 -105 55z"/>
<path d="M2352 824 c-16 -11 -22 -25 -22 -50 0 -31 21 -59 175 -240 151 -175
179 -204 203 -204 35 0 72 37 72 71 0 17 -50 83 -166 219 -91 107 -173 201
-182 208 -22 16 -53 15 -80 -4z"/>
<path d="M1515 615 l-25 -24 0 -268 c0 -307 1 -313 70 -313 69 0 70 6 70 313
l0 268 -25 24 c-13 14 -33 25 -45 25 -11 0 -32 -11 -45 -25z"/>
</g>
</svg>
