<?xml version="1.0" standalone="no"?>
<!DOCTYPE svg PUBLIC "-//W3C//DTD SVG 20010904//EN"
 "http://www.w3.org/TR/2001/REC-SVG-20010904/DTD/svg10.dtd">
<svg version="1.0" xmlns="http://www.w3.org/2000/svg"
 height="100px" width="100px" viewBox="0 0 416.000000 416.000000"
 preserveAspectRatio="xMidYMid meet">
<metadata>
Created by potrace 1.16, written by Peter Selinger 2001-2019
</metadata>
<g transform="translate(0.000000,416.000000) scale(0.100000,-0.100000)"
fill="#00aeee" stroke="none">
<path d="M2035 3545 l-25 -24 0 -268 c0 -307 1 -313 70 -313 69 0 70 6 70 313
l0 268 -25 24 c-31 32 -59 32 -90 0z"/>
<path d="M880 3220 c-36 -36 -26 -63 68 -173 48 -57 123 -147 167 -200 87
-104 121 -127 161 -109 29 14 47 53 36 81 -6 17 -285 353 -334 403 -24 24 -73
23 -98 -2z"/>
<path d="M3171 3208 c-16 -18 -95 -109 -175 -203 -149 -174 -162 -197 -136
-245 12 -23 53 -33 82 -19 20 9 227 245 326 370 37 48 41 80 12 109 -31 31
-74 26 -109 -12z"/>
<path d="M1827 2804 c-471 -73 -943 -346 -1175 -678 l-41 -58 51 -77 c171
-252 505 -479 880 -595 216 -67 299 -80 533 -80 248 -1 348 15 587 94 393 129
730 365 869 607 l30 53 -37 57 c-60 93 -245 270 -364 349 -256 170 -535 281
-830 329 -118 19 -380 18 -503 -1z m448 -238 c235 -116 329 -386 218 -624 -32
-68 -127 -170 -191 -205 -228 -124 -513 -35 -628 197 -89 182 -59 387 78 532
100 106 200 146 350 141 89 -4 105 -7 173 -41z m-683 -21 c-119 -135 -170
-358 -126 -545 50 -216 238 -409 449 -464 156 -40 298 -26 443 44 161 77 292
239 337 415 19 76 19 224 0 300 -21 79 -68 179 -109 229 -51 63 -51 66 -11 55
130 -36 377 -159 509 -253 87 -62 219 -185 257 -238 l19 -27 -50 -61 c-136
-163 -409 -334 -682 -428 -326 -113 -615 -128 -933 -48 -220 56 -412 142 -600
269 -98 67 -285 245 -285 271 0 24 151 173 248 244 82 61 239 154 317 187 58
26 239 94 248 95 5 0 -9 -20 -31 -45z"/>
<path d="M2020 2472 c0 -6 9 -14 20 -17 37 -12 72 -78 72 -135 0 -184 -245
-220 -305 -45 l-14 39 -19 -49 c-13 -34 -19 -74 -19 -126 1 -134 70 -239 195
-298 45 -21 69 -26 135 -25 97 0 157 26 225 94 72 71 95 127 95 235 0 78 -4
97 -28 146 -32 67 -100 132 -165 162 -52 23 -192 37 -192 19z"/>
<path d="M1213 1392 c-26 -17 -344 -399 -350 -420 -13 -51 64 -103 104 -70 8
7 90 100 181 207 135 158 165 199 165 224 0 48 -61 84 -100 59z"/>
<path d="M2872 1384 c-16 -11 -22 -25 -22 -50 0 -31 20 -59 170 -233 93 -109
177 -201 185 -205 30 -11 51 -6 73 17 41 43 32 60 -144 267 -91 107 -173 201
-182 208 -22 16 -53 15 -80 -4z"/>
<path d="M2035 1175 l-25 -24 0 -268 c0 -307 1 -313 70 -313 69 0 70 6 70 313
l0 268 -25 24 c-13 14 -33 25 -45 25 -11 0 -32 -11 -45 -25z"/>
</g>
</svg>
